<svg width="404" height="50" viewBox="0 0 404 50" fill="none" xmlns="http://www.w3.org/2000/svg">
<path d="M3.06941 15.4993C3.06935 15.4993 11.9793 15.4993 11.9793 15.4993C11.8193 14.8393 11.8093 14.1593 11.9493 13.4993H3.06935C2.37331 13.4635 1.81569 12.9636 2.06929 12.1493C2.06935 12.1493 5.63936 3.1493 5.63936 3.1493C5.79933 2.75935 6.19936 2.49934 6.63936 2.49934H53.3593C53.7993 2.49934 54.1994 2.75935 54.3593 3.1493L57.9293 12.1493C58.1943 12.9648 57.6165 13.4625 56.9294 13.4993H48.0493C48.1893 14.1593 48.1793 14.8393 48.0194 15.4993H56.9293C58.9993 15.5633 60.608 13.3291 59.7892 11.4093C59.7893 11.4093 56.2193 2.40931 56.2193 2.40931C55.7493 1.24934 54.6293 0.49934 53.3593 0.49934H6.63936C5.36934 0.49934 4.24935 1.24934 3.77937 2.40931L0.209356 11.4093C-0.606994 13.3281 0.997686 15.5642 3.06941 15.4993Z" fill="white"/>
<path d="M5.63929 20.1493C5.79926 19.7593 6.19929 19.4993 6.63929 19.4993H10.8293C11.2721 19.3014 11.7813 19.1939 12.2793 19.1493C12.4793 18.5893 12.7093 18.0393 12.9593 17.4993H6.63928C5.36926 17.4993 4.24927 18.2493 3.77929 19.4093L0.20928 28.4093C-0.15077 29.3193 -0.0407199 30.3493 0.50927 31.1593C1.07928 31.9993 2.03924 32.4993 3.06927 32.4993H12.5293C12.4393 32.2893 12.3593 32.0693 12.2793 31.8493C11.1468 31.7681 10.0928 31.2751 9.33929 30.4993H3.06927C2.37536 30.509 1.79467 29.8485 2.06927 29.1493L5.63929 20.1493Z" fill="white"/>
<path d="M59.4893 31.1593C60.0393 30.3493 60.1494 29.3193 59.7893 28.4093L56.2193 19.4093C55.7493 18.2493 54.6293 17.4993 53.3593 17.4993H47.0393C47.2893 18.0393 47.5193 18.5893 47.7193 19.1493C48.218 19.1944 48.7263 19.3013 49.1693 19.4993H53.3593C53.7993 19.4993 54.1993 19.7593 54.3593 20.1493L57.9293 29.1493C58.1857 29.9656 57.6227 30.4619 56.9294 30.4993H50.6593C49.9055 31.2735 48.8411 31.7634 47.7193 31.8493C47.6393 32.0693 47.5593 32.2893 47.4693 32.4993H56.9293C57.9593 32.4993 58.9193 31.9993 59.4893 31.1593Z" fill="white"/>
<path d="M56.2193 36.4093C55.7493 35.2493 54.6293 34.4993 53.3593 34.4993H47.6593C47.9793 35.1293 48.1393 35.8093 48.1493 36.4993H53.3593C53.7993 36.4993 54.1993 36.7593 54.3593 37.1493L57.9293 46.1493C58.1952 46.965 57.6158 47.4623 56.9293 47.4993H3.06931C2.49875 47.4856 2.02536 47.1193 1.9993 46.5093C1.9993 46.3993 2.01932 46.2793 2.06931 46.1493L5.63932 37.1493C5.79929 36.7593 6.19932 36.4993 6.63932 36.4993H11.8493C11.8593 35.8093 12.0193 35.1293 12.3393 34.4993H6.63932C5.3693 34.4993 4.24931 35.2493 3.77933 36.4093L0.209319 45.4093C-0.605321 47.3285 0.996428 49.5639 3.06937 49.4993C3.06931 49.4993 56.9293 49.4993 56.9293 49.4993C58.9952 49.5629 60.6109 47.3294 59.7892 45.4092C59.7893 45.4093 56.2193 36.4093 56.2193 36.4093Z" fill="white"/>
<path d="M47.7361 29.8314C49.0261 29.6712 49.9993 28.5687 49.9993 27.2679V23.7308C49.9993 22.43 49.0261 21.3279 47.7361 21.1673L46.2009 20.9754C45.8381 19.6741 45.3196 18.4241 44.6526 17.2444L45.6047 16.0203C46.4026 14.9945 46.3113 13.5277 45.3923 12.6077L42.8904 10.1063C41.9719 9.18732 40.5046 9.09553 39.4783 9.89338L38.2541 10.8455C37.0735 10.179 35.8235 9.66047 34.5232 9.29768L34.3313 7.76252C34.1707 6.47248 33.0691 5.49934 31.7683 5.49934H28.2302C26.9294 5.49934 25.8279 6.47248 25.6672 7.76204L25.4753 9.29768C24.1741 9.66047 22.9241 10.179 21.7444 10.846L20.5203 9.89387C19.4954 9.09651 18.0281 9.18733 17.1077 10.1063L14.6062 12.6082C13.6868 13.5276 13.5955 14.9949 14.3933 16.0203L15.3455 17.2444C14.679 18.4251 14.1604 19.6751 13.7976 20.9754L12.2624 21.1673C10.9724 21.3279 9.99927 22.43 9.99927 23.7308V27.2679C9.99927 28.5687 10.9724 29.6712 12.262 29.8314L13.7976 30.0238C14.1599 31.3236 14.679 32.5735 15.3459 33.7552L14.3943 34.9788C13.5959 36.0042 13.6873 37.471 14.6062 38.3919L17.1077 40.8919C18.0261 41.8128 19.4939 41.9056 20.5207 41.1058L21.7454 40.1527C22.9255 40.8197 24.175 41.3382 25.4753 41.7015L25.6672 43.2367C25.8279 44.5267 26.9294 45.4994 28.2302 45.4994H31.7683C33.0691 45.4994 34.1706 44.5267 34.3313 43.2367L34.5232 41.7015C35.8245 41.3382 37.0745 40.8197 38.2546 40.1527L39.4788 41.1048C40.5046 41.9037 41.9709 41.8118 42.8914 40.8919L45.3938 38.39C46.3123 37.4701 46.4036 36.0033 45.6057 34.9789L44.6536 33.7533C45.3201 32.5736 45.8381 31.3236 46.2009 30.0238L47.7361 29.8314ZM25.6394 29.7308C26.6395 30.5718 25.3674 32.1008 24.3591 31.2678C24.3591 31.2679 18.3591 26.2679 18.3591 26.2679C17.8845 25.8907 17.8838 25.108 18.3591 24.7308L24.3591 19.7313C25.3654 18.8978 26.6411 20.4261 25.6393 21.2674C25.6394 21.2674 20.5613 25.4993 20.5613 25.4993L25.6394 29.7308ZM32.9695 17.742L28.9695 33.7415C28.6429 35.0099 26.7175 34.5251 27.029 33.2571L31.029 17.2567C31.3689 15.9894 33.2667 16.4586 32.9695 17.742ZM41.6394 26.2679L35.6394 31.2679C35.4524 31.4232 35.2253 31.4993 34.9997 31.4993C34.1026 31.5317 33.6348 30.2921 34.3592 29.7308C34.3591 29.7308 39.4372 25.4993 39.4372 25.4993L34.3591 21.2674C33.3596 20.4303 34.6305 18.8955 35.6395 19.7313C35.6394 19.7313 41.6394 24.7308 41.6394 24.7308C42.114 25.1083 42.1148 25.8904 41.6394 26.2679Z" fill="white"/>
<path d="M94.4886 38H86.8182L95.4602 11.8182H105.176L113.818 38H106.148L100.42 19.0284H100.216L94.4886 38ZM93.0568 27.6705H107.477V32.9886H93.0568V27.6705ZM116.442 45.3636V18.3636H123.448V21.7898H123.601C123.857 21.125 124.232 20.5156 124.726 19.9616C125.221 19.3991 125.834 18.9517 126.567 18.6193C127.3 18.2784 128.152 18.108 129.124 18.108C130.419 18.108 131.651 18.4531 132.819 19.1435C133.995 19.8338 134.949 20.9205 135.682 22.4034C136.424 23.8864 136.794 25.8125 136.794 28.1818C136.794 30.4489 136.441 32.3281 135.733 33.8196C135.034 35.3111 134.097 36.4233 132.921 37.1562C131.753 37.8892 130.471 38.2557 129.073 38.2557C128.152 38.2557 127.33 38.1065 126.605 37.8082C125.89 37.5014 125.276 37.0881 124.765 36.5682C124.262 36.0398 123.874 35.4432 123.601 34.7784H123.499V45.3636H116.442ZM123.346 28.1818C123.346 29.1364 123.469 29.9631 123.716 30.6619C123.972 31.3523 124.33 31.8892 124.79 32.2727C125.259 32.6477 125.817 32.8352 126.465 32.8352C127.113 32.8352 127.662 32.652 128.114 32.2855C128.574 31.9105 128.924 31.3778 129.162 30.6875C129.409 29.9886 129.533 29.1534 129.533 28.1818C129.533 27.2102 129.409 26.3793 129.162 25.6889C128.924 24.9901 128.574 24.4574 128.114 24.0909C127.662 23.7159 127.113 23.5284 126.465 23.5284C125.817 23.5284 125.259 23.7159 124.79 24.0909C124.33 24.4574 123.972 24.9901 123.716 25.6889C123.469 26.3793 123.346 27.2102 123.346 28.1818ZM139.751 45.3636V18.3636H146.756V21.7898H146.91C147.165 21.125 147.54 20.5156 148.035 19.9616C148.529 19.3991 149.143 18.9517 149.876 18.6193C150.609 18.2784 151.461 18.108 152.433 18.108C153.728 18.108 154.96 18.4531 156.127 19.1435C157.303 19.8338 158.258 20.9205 158.991 22.4034C159.732 23.8864 160.103 25.8125 160.103 28.1818C160.103 30.4489 159.749 32.3281 159.042 33.8196C158.343 35.3111 157.406 36.4233 156.229 37.1562C155.062 37.8892 153.779 38.2557 152.381 38.2557C151.461 38.2557 150.638 38.1065 149.914 37.8082C149.198 37.5014 148.585 37.0881 148.073 36.5682C147.57 36.0398 147.183 35.4432 146.91 34.7784H146.808V45.3636H139.751ZM146.654 28.1818C146.654 29.1364 146.778 29.9631 147.025 30.6619C147.281 31.3523 147.638 31.8892 148.099 32.2727C148.567 32.6477 149.126 32.8352 149.773 32.8352C150.421 32.8352 150.971 32.652 151.423 32.2855C151.883 31.9105 152.232 31.3778 152.471 30.6875C152.718 29.9886 152.842 29.1534 152.842 28.1818C152.842 27.2102 152.718 26.3793 152.471 25.6889C152.232 24.9901 151.883 24.4574 151.423 24.0909C150.971 23.7159 150.421 23.5284 149.773 23.5284C149.126 23.5284 148.567 23.7159 148.099 24.0909C147.638 24.4574 147.281 24.9901 147.025 25.6889C146.778 26.3793 146.654 27.2102 146.654 28.1818ZM170.116 11.8182V38H163.059V11.8182H170.116ZM173.712 38V18.3636H180.768V38H173.712ZM177.24 16.3182C176.286 16.3182 175.467 16.0028 174.786 15.3722C174.104 14.7415 173.763 13.983 173.763 13.0966C173.763 12.2102 174.104 11.4517 174.786 10.821C175.467 10.1903 176.286 9.875 177.24 9.875C178.203 9.875 179.021 10.1903 179.695 10.821C180.376 11.4517 180.717 12.2102 180.717 13.0966C180.717 13.983 180.376 14.7415 179.695 15.3722C179.021 16.0028 178.203 16.3182 177.24 16.3182ZM193.824 38.358C191.694 38.358 189.87 37.9361 188.353 37.0923C186.836 36.2401 185.672 35.0554 184.863 33.5384C184.053 32.0128 183.648 30.2443 183.648 28.233C183.648 26.2216 184.053 24.4574 184.863 22.9403C185.672 21.4148 186.836 20.2301 188.353 19.3864C189.87 18.5341 191.694 18.108 193.824 18.108C195.75 18.108 197.417 18.4574 198.823 19.1562C200.238 19.8466 201.333 20.8267 202.108 22.0966C202.884 23.358 203.276 24.8409 203.284 26.5455H196.739C196.645 25.5142 196.347 24.7301 195.844 24.1932C195.35 23.6477 194.711 23.375 193.926 23.375C193.313 23.375 192.776 23.554 192.316 23.9119C191.855 24.2614 191.498 24.794 191.242 25.5099C190.986 26.2173 190.858 27.108 190.858 28.1818C190.858 29.2557 190.986 30.1506 191.242 30.8665C191.498 31.5739 191.855 32.1065 192.316 32.4645C192.776 32.8139 193.313 32.9886 193.926 32.9886C194.446 32.9886 194.907 32.8693 195.307 32.6307C195.708 32.3835 196.032 32.0256 196.279 31.5568C196.534 31.0795 196.688 30.5 196.739 29.8182H203.284C203.259 31.5483 202.863 33.0568 202.096 34.3438C201.328 35.6222 200.242 36.6108 198.836 37.3097C197.438 38.0085 195.767 38.358 193.824 38.358ZM211.668 38.3068C210.415 38.3068 209.307 38.1023 208.344 37.6932C207.389 37.2756 206.639 36.6449 206.094 35.8011C205.548 34.9574 205.276 33.8835 205.276 32.5795C205.276 31.5057 205.459 30.5895 205.825 29.831C206.192 29.0639 206.703 28.4375 207.359 27.9517C208.016 27.4659 208.778 27.0952 209.648 26.8395C210.526 26.5838 211.472 26.4176 212.486 26.3409C213.585 26.2557 214.467 26.1534 215.132 26.0341C215.805 25.9062 216.291 25.7315 216.589 25.5099C216.888 25.2798 217.037 24.9773 217.037 24.6023V24.5511C217.037 24.0398 216.841 23.6477 216.449 23.375C216.057 23.1023 215.554 22.9659 214.94 22.9659C214.267 22.9659 213.717 23.1151 213.291 23.4134C212.874 23.7031 212.622 24.1506 212.537 24.7557H206.043C206.128 23.5625 206.507 22.4631 207.18 21.4574C207.862 20.4432 208.855 19.6335 210.159 19.0284C211.463 18.4148 213.091 18.108 215.043 18.108C216.449 18.108 217.71 18.2741 218.827 18.6065C219.943 18.9304 220.893 19.3864 221.678 19.9744C222.462 20.554 223.058 21.2358 223.467 22.0199C223.885 22.7955 224.094 23.6392 224.094 24.5511V38H217.497V35.2386H217.344C216.952 35.9716 216.474 36.5639 215.912 37.0156C215.358 37.4673 214.723 37.7955 214.007 38C213.3 38.2045 212.52 38.3068 211.668 38.3068ZM213.969 33.858C214.506 33.858 215.009 33.7472 215.477 33.5256C215.955 33.304 216.342 32.9844 216.641 32.5668C216.939 32.1491 217.088 31.642 217.088 31.0455V29.4091C216.901 29.4858 216.7 29.5582 216.487 29.6264C216.283 29.6946 216.061 29.7585 215.822 29.8182C215.592 29.8778 215.345 29.9332 215.081 29.9844C214.825 30.0355 214.557 30.0824 214.276 30.125C213.73 30.2102 213.283 30.3509 212.933 30.5469C212.592 30.7344 212.337 30.9688 212.166 31.25C212.004 31.5227 211.923 31.8295 211.923 32.1705C211.923 32.7159 212.115 33.1335 212.499 33.4233C212.882 33.7131 213.372 33.858 213.969 33.858ZM239.176 18.3636V23.4773H226.238V18.3636H239.176ZM228.744 13.6591H235.801V31.6847C235.801 31.9574 235.848 32.1875 235.941 32.375C236.035 32.554 236.18 32.6903 236.376 32.7841C236.572 32.8693 236.824 32.9119 237.13 32.9119C237.343 32.9119 237.591 32.8864 237.872 32.8352C238.162 32.7841 238.375 32.7415 238.511 32.7074L239.534 37.6676C239.218 37.7614 238.767 37.8764 238.179 38.0128C237.599 38.1491 236.909 38.2386 236.108 38.2812C234.488 38.3665 233.129 38.2003 232.029 37.7827C230.93 37.3565 230.103 36.6875 229.549 35.7756C228.995 34.8636 228.727 33.7216 228.744 32.3494V13.6591ZM242.055 38V18.3636H249.112V38H242.055ZM245.584 16.3182C244.629 16.3182 243.811 16.0028 243.129 15.3722C242.447 14.7415 242.107 13.983 242.107 13.0966C242.107 12.2102 242.447 11.4517 243.129 10.821C243.811 10.1903 244.629 9.875 245.584 9.875C246.547 9.875 247.365 10.1903 248.038 10.821C248.72 11.4517 249.061 12.2102 249.061 13.0966C249.061 13.983 248.72 14.7415 248.038 15.3722C247.365 16.0028 246.547 16.3182 245.584 16.3182ZM262.168 38.358C260.037 38.358 258.213 37.9361 256.696 37.0923C255.179 36.2401 254.016 35.0554 253.206 33.5384C252.397 32.0128 251.992 30.2443 251.992 28.233C251.992 26.2216 252.397 24.4574 253.206 22.9403C254.016 21.4148 255.179 20.2301 256.696 19.3864C258.213 18.5341 260.037 18.108 262.168 18.108C264.299 18.108 266.123 18.5341 267.64 19.3864C269.157 20.2301 270.32 21.4148 271.13 22.9403C271.939 24.4574 272.344 26.2216 272.344 28.233C272.344 30.2443 271.939 32.0128 271.13 33.5384C270.32 35.0554 269.157 36.2401 267.64 37.0923C266.123 37.9361 264.299 38.358 262.168 38.358ZM262.219 33.142C262.816 33.142 263.331 32.9418 263.766 32.5412C264.201 32.1406 264.537 31.5696 264.776 30.8281C265.015 30.0866 265.134 29.2045 265.134 28.1818C265.134 27.1506 265.015 26.2685 264.776 25.5355C264.537 24.794 264.201 24.223 263.766 23.8224C263.331 23.4219 262.816 23.2216 262.219 23.2216C261.588 23.2216 261.047 23.4219 260.596 23.8224C260.144 24.223 259.799 24.794 259.56 25.5355C259.321 26.2685 259.202 27.1506 259.202 28.1818C259.202 29.2045 259.321 30.0866 259.56 30.8281C259.799 31.5696 260.144 32.1406 260.596 32.5412C261.047 32.9418 261.588 33.142 262.219 33.142ZM282.265 26.9545V38H275.208V18.3636H281.907V22.0966H282.111C282.537 20.8523 283.287 19.8764 284.361 19.169C285.444 18.4616 286.705 18.108 288.145 18.108C289.534 18.108 290.74 18.4276 291.763 19.0668C292.794 19.6974 293.591 20.5668 294.154 21.6747C294.725 22.7827 295.006 24.0483 294.998 25.4716V38H287.941V26.9545C287.949 25.983 287.702 25.2202 287.199 24.6662C286.705 24.1122 286.015 23.8352 285.128 23.8352C284.549 23.8352 284.042 23.9631 283.607 24.2188C283.181 24.4659 282.853 24.8239 282.623 25.2926C282.392 25.7528 282.273 26.3068 282.265 26.9545ZM305.551 38V11.8182H312.659V32.2727H323.244V38H305.551ZM331.691 38.3068C330.438 38.3068 329.33 38.1023 328.367 37.6932C327.413 37.2756 326.663 36.6449 326.117 35.8011C325.572 34.9574 325.299 33.8835 325.299 32.5795C325.299 31.5057 325.482 30.5895 325.849 29.831C326.215 29.0639 326.727 28.4375 327.383 27.9517C328.039 27.4659 328.802 27.0952 329.671 26.8395C330.549 26.5838 331.495 26.4176 332.509 26.3409C333.609 26.2557 334.491 26.1534 335.156 26.0341C335.829 25.9062 336.315 25.7315 336.613 25.5099C336.911 25.2798 337.06 24.9773 337.06 24.6023V24.5511C337.06 24.0398 336.864 23.6477 336.472 23.375C336.08 23.1023 335.577 22.9659 334.964 22.9659C334.29 22.9659 333.741 23.1151 333.315 23.4134C332.897 23.7031 332.646 24.1506 332.56 24.7557H326.066C326.151 23.5625 326.531 22.4631 327.204 21.4574C327.886 20.4432 328.879 19.6335 330.183 19.0284C331.487 18.4148 333.114 18.108 335.066 18.108C336.472 18.108 337.734 18.2741 338.85 18.6065C339.967 18.9304 340.917 19.3864 341.701 19.9744C342.485 20.554 343.082 21.2358 343.491 22.0199C343.908 22.7955 344.117 23.6392 344.117 24.5511V38H337.521V35.2386H337.367C336.975 35.9716 336.498 36.5639 335.935 37.0156C335.381 37.4673 334.746 37.7955 334.031 38C333.323 38.2045 332.543 38.3068 331.691 38.3068ZM333.992 33.858C334.529 33.858 335.032 33.7472 335.501 33.5256C335.978 33.304 336.366 32.9844 336.664 32.5668C336.962 32.1491 337.112 31.642 337.112 31.0455V29.4091C336.924 29.4858 336.724 29.5582 336.511 29.6264C336.306 29.6946 336.085 29.7585 335.846 29.8182C335.616 29.8778 335.369 29.9332 335.104 29.9844C334.849 30.0355 334.58 30.0824 334.299 30.125C333.754 30.2102 333.306 30.3509 332.957 30.5469C332.616 30.7344 332.36 30.9688 332.19 31.25C332.028 31.5227 331.947 31.8295 331.947 32.1705C331.947 32.7159 332.138 33.1335 332.522 33.4233C332.906 33.7131 333.396 33.858 333.992 33.858ZM351.081 45.3636C350.272 45.3636 349.5 45.2997 348.767 45.1719C348.034 45.0526 347.391 44.8864 346.837 44.6733L348.371 39.6619C348.951 39.8665 349.479 39.9986 349.956 40.0582C350.442 40.1179 350.855 40.0838 351.196 39.956C351.546 39.8281 351.797 39.5852 351.951 39.2273L352.104 38.8693L345.201 18.3636H352.564L355.735 31.9659H355.939L359.161 18.3636H366.576L359.417 39.6364C359.059 40.7188 358.539 41.6903 357.857 42.5511C357.184 43.4205 356.297 44.1065 355.198 44.6094C354.098 45.1122 352.726 45.3636 351.081 45.3636ZM377.394 38.358C375.298 38.358 373.491 37.9574 371.974 37.1562C370.465 36.3466 369.302 35.1875 368.484 33.679C367.674 32.1619 367.269 30.3466 367.269 28.233C367.269 26.2045 367.678 24.4318 368.496 22.9148C369.315 21.3977 370.469 20.2173 371.961 19.3736C373.452 18.5298 375.212 18.108 377.241 18.108C378.724 18.108 380.066 18.3381 381.268 18.7983C382.469 19.2585 383.496 19.9276 384.349 20.8054C385.201 21.6747 385.857 22.7315 386.317 23.9759C386.778 25.2202 387.008 26.6222 387.008 28.1818V29.8182H369.468V25.9318H380.513C380.505 25.3693 380.36 24.875 380.079 24.4489C379.806 24.0142 379.435 23.6776 378.967 23.4389C378.506 23.1918 377.982 23.0682 377.394 23.0682C376.823 23.0682 376.299 23.1918 375.822 23.4389C375.344 23.6776 374.961 24.0099 374.671 24.4361C374.39 24.8622 374.241 25.3608 374.224 25.9318V30.125C374.224 30.7557 374.356 31.3182 374.62 31.8125C374.884 32.3068 375.263 32.6946 375.758 32.9759C376.252 33.2571 376.849 33.3977 377.548 33.3977C378.033 33.3977 378.477 33.3295 378.877 33.1932C379.286 33.0568 379.636 32.8608 379.925 32.6051C380.215 32.3409 380.428 32.0256 380.565 31.6591H387.008C386.786 33.0227 386.262 34.2074 385.435 35.2131C384.609 36.2102 383.513 36.9858 382.15 37.5398C380.795 38.0852 379.21 38.358 377.394 38.358ZM389.887 38V18.3636H396.74V22.0966H396.944C397.302 20.7159 397.869 19.706 398.645 19.0668C399.429 18.4276 400.345 18.108 401.393 18.108C401.7 18.108 402.002 18.1335 402.301 18.1847C402.608 18.2273 402.902 18.2912 403.183 18.3764V24.3977C402.833 24.2784 402.403 24.1889 401.892 24.1293C401.38 24.0696 400.941 24.0398 400.575 24.0398C399.885 24.0398 399.262 24.1974 398.708 24.5128C398.163 24.8196 397.733 25.2543 397.417 25.8168C397.102 26.3707 396.944 27.0227 396.944 27.7727V38H389.887Z" fill="white"/>
</svg>
